<mxfile host="app.diagrams.net" modified="2022-05-27T15:34:56.262Z" agent="5.0 (Windows NT 10.0; Win64; x64) AppleWebKit/537.36 (KHTML, like Gecko) Chrome/101.0.4951.67 Safari/537.36" etag="N_7VaCBToEFx7f5n3XCl" version="18.1.3" type="github">
  <diagram id="mF-xVMla_FzBH1kv6Dqd" name="Page-1">
    <mxGraphModel dx="9191" dy="6950" grid="1" gridSize="10" guides="1" tooltips="1" connect="1" arrows="1" fold="1" page="1" pageScale="1" pageWidth="3300" pageHeight="4681" math="0" shadow="0">
      <root>
        <mxCell id="0" />
        <mxCell id="1" parent="0" />
        <mxCell id="PElz7vEtqk01Eh3gNN9_-1" value="" style="rounded=0;whiteSpace=wrap;html=1;" vertex="1" parent="1">
          <mxGeometry x="660" y="310" width="2340" height="1180" as="geometry" />
        </mxCell>
        <mxCell id="PElz7vEtqk01Eh3gNN9_-43" value="" style="edgeStyle=orthogonalEdgeStyle;rounded=0;orthogonalLoop=1;jettySize=auto;html=1;" edge="1" parent="1" source="PElz7vEtqk01Eh3gNN9_-2" target="PElz7vEtqk01Eh3gNN9_-42">
          <mxGeometry relative="1" as="geometry" />
        </mxCell>
        <mxCell id="PElz7vEtqk01Eh3gNN9_-2" value="" style="rounded=0;whiteSpace=wrap;html=1;" vertex="1" parent="1">
          <mxGeometry x="700" y="340" width="390" height="1070" as="geometry" />
        </mxCell>
        <mxCell id="PElz7vEtqk01Eh3gNN9_-55" value="" style="edgeStyle=orthogonalEdgeStyle;rounded=0;orthogonalLoop=1;jettySize=auto;html=1;" edge="1" parent="1" source="PElz7vEtqk01Eh3gNN9_-3" target="PElz7vEtqk01Eh3gNN9_-54">
          <mxGeometry relative="1" as="geometry" />
        </mxCell>
        <mxCell id="PElz7vEtqk01Eh3gNN9_-72" value="" style="edgeStyle=orthogonalEdgeStyle;rounded=0;orthogonalLoop=1;jettySize=auto;html=1;exitX=0.5;exitY=0;exitDx=0;exitDy=0;" edge="1" parent="1" source="PElz7vEtqk01Eh3gNN9_-1" target="PElz7vEtqk01Eh3gNN9_-71">
          <mxGeometry relative="1" as="geometry">
            <Array as="points">
              <mxPoint x="1830" y="280" />
              <mxPoint x="1760" y="280" />
              <mxPoint x="1760" y="-70" />
              <mxPoint x="1710" y="-70" />
            </Array>
          </mxGeometry>
        </mxCell>
        <mxCell id="PElz7vEtqk01Eh3gNN9_-3" value="" style="rounded=0;whiteSpace=wrap;html=1;" vertex="1" parent="1">
          <mxGeometry x="1150" y="340" width="1400" height="170" as="geometry" />
        </mxCell>
        <mxCell id="PElz7vEtqk01Eh3gNN9_-59" value="" style="edgeStyle=orthogonalEdgeStyle;rounded=0;orthogonalLoop=1;jettySize=auto;html=1;" edge="1" parent="1" source="PElz7vEtqk01Eh3gNN9_-4" target="PElz7vEtqk01Eh3gNN9_-58">
          <mxGeometry relative="1" as="geometry" />
        </mxCell>
        <mxCell id="PElz7vEtqk01Eh3gNN9_-4" value="" style="rounded=0;whiteSpace=wrap;html=1;" vertex="1" parent="1">
          <mxGeometry x="2590" y="340" width="360" height="1080" as="geometry" />
        </mxCell>
        <mxCell id="PElz7vEtqk01Eh3gNN9_-5" value="" style="rounded=0;whiteSpace=wrap;html=1;" vertex="1" parent="1">
          <mxGeometry x="1150" y="540" width="1400" height="880" as="geometry" />
        </mxCell>
        <mxCell id="PElz7vEtqk01Eh3gNN9_-69" value="" style="edgeStyle=orthogonalEdgeStyle;rounded=0;orthogonalLoop=1;jettySize=auto;html=1;" edge="1" parent="1" source="PElz7vEtqk01Eh3gNN9_-6" target="PElz7vEtqk01Eh3gNN9_-68">
          <mxGeometry relative="1" as="geometry">
            <Array as="points">
              <mxPoint x="1220" y="665" />
              <mxPoint x="1220" y="1110" />
              <mxPoint x="1800" y="1110" />
            </Array>
          </mxGeometry>
        </mxCell>
        <mxCell id="PElz7vEtqk01Eh3gNN9_-6" value="" style="rounded=0;whiteSpace=wrap;html=1;" vertex="1" parent="1">
          <mxGeometry x="1230" y="600" width="150" height="130" as="geometry" />
        </mxCell>
        <mxCell id="PElz7vEtqk01Eh3gNN9_-14" value="FOLDER" style="text;html=1;strokeColor=none;fillColor=none;align=center;verticalAlign=middle;whiteSpace=wrap;rounded=0;" vertex="1" parent="1">
          <mxGeometry x="1230" y="740" width="150" height="40" as="geometry" />
        </mxCell>
        <mxCell id="PElz7vEtqk01Eh3gNN9_-15" value="" style="rounded=0;whiteSpace=wrap;html=1;" vertex="1" parent="1">
          <mxGeometry x="1550" y="600" width="150" height="130" as="geometry" />
        </mxCell>
        <mxCell id="PElz7vEtqk01Eh3gNN9_-16" value="FOLDER" style="text;html=1;strokeColor=none;fillColor=none;align=center;verticalAlign=middle;whiteSpace=wrap;rounded=0;" vertex="1" parent="1">
          <mxGeometry x="1550" y="740" width="150" height="40" as="geometry" />
        </mxCell>
        <mxCell id="PElz7vEtqk01Eh3gNN9_-17" value="" style="rounded=0;whiteSpace=wrap;html=1;" vertex="1" parent="1">
          <mxGeometry x="1850" y="600" width="150" height="130" as="geometry" />
        </mxCell>
        <mxCell id="PElz7vEtqk01Eh3gNN9_-18" value="FOLDER" style="text;html=1;strokeColor=none;fillColor=none;align=center;verticalAlign=middle;whiteSpace=wrap;rounded=0;" vertex="1" parent="1">
          <mxGeometry x="1850" y="740" width="150" height="40" as="geometry" />
        </mxCell>
        <mxCell id="PElz7vEtqk01Eh3gNN9_-19" value="" style="rounded=0;whiteSpace=wrap;html=1;" vertex="1" parent="1">
          <mxGeometry x="2170" y="600" width="150" height="130" as="geometry" />
        </mxCell>
        <mxCell id="PElz7vEtqk01Eh3gNN9_-20" value="FOLDER" style="text;html=1;strokeColor=none;fillColor=none;align=center;verticalAlign=middle;whiteSpace=wrap;rounded=0;" vertex="1" parent="1">
          <mxGeometry x="2170" y="740" width="150" height="40" as="geometry" />
        </mxCell>
        <mxCell id="PElz7vEtqk01Eh3gNN9_-21" value="" style="rounded=0;whiteSpace=wrap;html=1;" vertex="1" parent="1">
          <mxGeometry x="1240" y="870" width="150" height="130" as="geometry" />
        </mxCell>
        <mxCell id="PElz7vEtqk01Eh3gNN9_-22" value="Filename.txt" style="text;html=1;strokeColor=none;fillColor=none;align=center;verticalAlign=middle;whiteSpace=wrap;rounded=0;" vertex="1" parent="1">
          <mxGeometry x="1240" y="1010" width="150" height="40" as="geometry" />
        </mxCell>
        <mxCell id="PElz7vEtqk01Eh3gNN9_-23" value="" style="rounded=0;whiteSpace=wrap;html=1;" vertex="1" parent="1">
          <mxGeometry x="1560" y="870" width="150" height="130" as="geometry" />
        </mxCell>
        <mxCell id="PElz7vEtqk01Eh3gNN9_-24" value="Filename.png" style="text;html=1;strokeColor=none;fillColor=none;align=center;verticalAlign=middle;whiteSpace=wrap;rounded=0;" vertex="1" parent="1">
          <mxGeometry x="1560" y="1010" width="150" height="40" as="geometry" />
        </mxCell>
        <mxCell id="PElz7vEtqk01Eh3gNN9_-25" value="" style="rounded=0;whiteSpace=wrap;html=1;" vertex="1" parent="1">
          <mxGeometry x="1860" y="870" width="150" height="130" as="geometry" />
        </mxCell>
        <mxCell id="PElz7vEtqk01Eh3gNN9_-26" value="Filename.png" style="text;html=1;strokeColor=none;fillColor=none;align=center;verticalAlign=middle;whiteSpace=wrap;rounded=0;" vertex="1" parent="1">
          <mxGeometry x="1860" y="1010" width="150" height="40" as="geometry" />
        </mxCell>
        <mxCell id="PElz7vEtqk01Eh3gNN9_-27" value="" style="rounded=0;whiteSpace=wrap;html=1;" vertex="1" parent="1">
          <mxGeometry x="2180" y="870" width="150" height="130" as="geometry" />
        </mxCell>
        <mxCell id="PElz7vEtqk01Eh3gNN9_-28" value="Filename.mp4" style="text;html=1;strokeColor=none;fillColor=none;align=center;verticalAlign=middle;whiteSpace=wrap;rounded=0;" vertex="1" parent="1">
          <mxGeometry x="2180" y="1010" width="150" height="40" as="geometry" />
        </mxCell>
        <mxCell id="PElz7vEtqk01Eh3gNN9_-53" value="" style="edgeStyle=orthogonalEdgeStyle;rounded=0;orthogonalLoop=1;jettySize=auto;html=1;" edge="1" parent="1" source="PElz7vEtqk01Eh3gNN9_-30" target="PElz7vEtqk01Eh3gNN9_-52">
          <mxGeometry relative="1" as="geometry" />
        </mxCell>
        <mxCell id="PElz7vEtqk01Eh3gNN9_-30" value="" style="rounded=0;whiteSpace=wrap;html=1;" vertex="1" parent="1">
          <mxGeometry x="1210" y="370" width="450" height="120" as="geometry" />
        </mxCell>
        <mxCell id="PElz7vEtqk01Eh3gNN9_-57" value="" style="edgeStyle=orthogonalEdgeStyle;rounded=0;orthogonalLoop=1;jettySize=auto;html=1;" edge="1" parent="1" source="PElz7vEtqk01Eh3gNN9_-31" target="PElz7vEtqk01Eh3gNN9_-56">
          <mxGeometry relative="1" as="geometry" />
        </mxCell>
        <mxCell id="PElz7vEtqk01Eh3gNN9_-31" value="" style="rounded=0;whiteSpace=wrap;html=1;" vertex="1" parent="1">
          <mxGeometry x="1990" y="370" width="500" height="120" as="geometry" />
        </mxCell>
        <mxCell id="PElz7vEtqk01Eh3gNN9_-45" value="" style="edgeStyle=orthogonalEdgeStyle;rounded=0;orthogonalLoop=1;jettySize=auto;html=1;" edge="1" parent="1" source="PElz7vEtqk01Eh3gNN9_-32" target="PElz7vEtqk01Eh3gNN9_-44">
          <mxGeometry relative="1" as="geometry">
            <Array as="points">
              <mxPoint x="-105" y="710" />
            </Array>
          </mxGeometry>
        </mxCell>
        <mxCell id="PElz7vEtqk01Eh3gNN9_-32" value="" style="rounded=0;whiteSpace=wrap;html=1;" vertex="1" parent="1">
          <mxGeometry x="730" y="380" width="320" height="370" as="geometry" />
        </mxCell>
        <mxCell id="PElz7vEtqk01Eh3gNN9_-47" value="" style="edgeStyle=orthogonalEdgeStyle;rounded=0;orthogonalLoop=1;jettySize=auto;html=1;" edge="1" parent="1" source="PElz7vEtqk01Eh3gNN9_-33" target="PElz7vEtqk01Eh3gNN9_-46">
          <mxGeometry relative="1" as="geometry" />
        </mxCell>
        <mxCell id="PElz7vEtqk01Eh3gNN9_-33" value="" style="rounded=0;whiteSpace=wrap;html=1;" vertex="1" parent="1">
          <mxGeometry x="730" y="830" width="320" height="520" as="geometry" />
        </mxCell>
        <mxCell id="PElz7vEtqk01Eh3gNN9_-61" value="" style="edgeStyle=orthogonalEdgeStyle;rounded=0;orthogonalLoop=1;jettySize=auto;html=1;" edge="1" parent="1" source="PElz7vEtqk01Eh3gNN9_-34" target="PElz7vEtqk01Eh3gNN9_-60">
          <mxGeometry relative="1" as="geometry" />
        </mxCell>
        <mxCell id="PElz7vEtqk01Eh3gNN9_-34" value="" style="rounded=0;whiteSpace=wrap;html=1;" vertex="1" parent="1">
          <mxGeometry x="2610" y="370" width="310" height="100" as="geometry" />
        </mxCell>
        <mxCell id="PElz7vEtqk01Eh3gNN9_-63" value="" style="edgeStyle=orthogonalEdgeStyle;rounded=0;orthogonalLoop=1;jettySize=auto;html=1;" edge="1" parent="1" source="PElz7vEtqk01Eh3gNN9_-35" target="PElz7vEtqk01Eh3gNN9_-62">
          <mxGeometry relative="1" as="geometry" />
        </mxCell>
        <mxCell id="PElz7vEtqk01Eh3gNN9_-35" value="" style="rounded=0;whiteSpace=wrap;html=1;" vertex="1" parent="1">
          <mxGeometry x="2610" y="550" width="310" height="200" as="geometry" />
        </mxCell>
        <mxCell id="PElz7vEtqk01Eh3gNN9_-65" value="" style="edgeStyle=orthogonalEdgeStyle;rounded=0;orthogonalLoop=1;jettySize=auto;html=1;" edge="1" parent="1" source="PElz7vEtqk01Eh3gNN9_-36" target="PElz7vEtqk01Eh3gNN9_-64">
          <mxGeometry relative="1" as="geometry">
            <Array as="points">
              <mxPoint x="2765" y="1360" />
              <mxPoint x="3330" y="1360" />
            </Array>
          </mxGeometry>
        </mxCell>
        <mxCell id="PElz7vEtqk01Eh3gNN9_-36" value="" style="rounded=0;whiteSpace=wrap;html=1;" vertex="1" parent="1">
          <mxGeometry x="2610" y="800" width="310" height="520" as="geometry" />
        </mxCell>
        <mxCell id="PElz7vEtqk01Eh3gNN9_-37" value="" style="rounded=0;whiteSpace=wrap;html=1;" vertex="1" parent="1">
          <mxGeometry x="760" y="870" width="250" height="60" as="geometry" />
        </mxCell>
        <mxCell id="PElz7vEtqk01Eh3gNN9_-38" value="" style="rounded=0;whiteSpace=wrap;html=1;" vertex="1" parent="1">
          <mxGeometry x="760" y="1010" width="250" height="60" as="geometry" />
        </mxCell>
        <mxCell id="PElz7vEtqk01Eh3gNN9_-39" value="" style="rounded=0;whiteSpace=wrap;html=1;" vertex="1" parent="1">
          <mxGeometry x="760" y="1140" width="250" height="60" as="geometry" />
        </mxCell>
        <mxCell id="PElz7vEtqk01Eh3gNN9_-49" value="" style="edgeStyle=orthogonalEdgeStyle;rounded=0;orthogonalLoop=1;jettySize=auto;html=1;" edge="1" parent="1" source="PElz7vEtqk01Eh3gNN9_-40" target="PElz7vEtqk01Eh3gNN9_-48">
          <mxGeometry relative="1" as="geometry" />
        </mxCell>
        <mxCell id="PElz7vEtqk01Eh3gNN9_-40" value="" style="rounded=0;whiteSpace=wrap;html=1;" vertex="1" parent="1">
          <mxGeometry x="760" y="440" width="260" height="80" as="geometry" />
        </mxCell>
        <mxCell id="PElz7vEtqk01Eh3gNN9_-51" value="" style="edgeStyle=orthogonalEdgeStyle;rounded=0;orthogonalLoop=1;jettySize=auto;html=1;" edge="1" parent="1" source="PElz7vEtqk01Eh3gNN9_-41" target="PElz7vEtqk01Eh3gNN9_-50">
          <mxGeometry relative="1" as="geometry" />
        </mxCell>
        <mxCell id="PElz7vEtqk01Eh3gNN9_-41" value="" style="rounded=0;whiteSpace=wrap;html=1;" vertex="1" parent="1">
          <mxGeometry x="765" y="590" width="260" height="80" as="geometry" />
        </mxCell>
        <mxCell id="PElz7vEtqk01Eh3gNN9_-42" value="&lt;br style=&quot;&quot;&gt;&lt;span style=&quot;font-size: 25px;&quot;&gt;Class: left-menu&lt;/span&gt;&lt;br style=&quot;font-size: 25px;&quot;&gt;&lt;span style=&quot;font-size: 25px;&quot;&gt;Element: section&lt;/span&gt;" style="whiteSpace=wrap;html=1;rounded=0;" vertex="1" parent="1">
          <mxGeometry x="-400" y="770" width="490" height="160" as="geometry" />
        </mxCell>
        <mxCell id="PElz7vEtqk01Eh3gNN9_-44" value="&lt;br style=&quot;&quot;&gt;&lt;span style=&quot;font-size: 25px;&quot;&gt;Class: create-container&lt;/span&gt;&lt;br style=&quot;font-size: 25px;&quot;&gt;&lt;span style=&quot;font-size: 25px;&quot;&gt;Element: div&lt;/span&gt;" style="whiteSpace=wrap;html=1;rounded=0;" vertex="1" parent="1">
          <mxGeometry x="-330" y="440" width="380" height="175" as="geometry" />
        </mxCell>
        <mxCell id="PElz7vEtqk01Eh3gNN9_-46" value="" style="whiteSpace=wrap;html=1;rounded=0;" vertex="1" parent="1">
          <mxGeometry x="-410" y="1120" width="500" height="170" as="geometry" />
        </mxCell>
        <mxCell id="PElz7vEtqk01Eh3gNN9_-48" value="&lt;br&gt;&lt;br style=&quot;color: rgb(0, 0, 0); font-family: Helvetica; font-size: 12px; font-style: normal; font-variant-ligatures: normal; font-variant-caps: normal; font-weight: 400; letter-spacing: normal; orphans: 2; text-align: center; text-indent: 0px; text-transform: none; widows: 2; word-spacing: 0px; -webkit-text-stroke-width: 0px; background-color: rgb(248, 249, 250); text-decoration-thickness: initial; text-decoration-style: initial; text-decoration-color: initial;&quot;&gt;&lt;span style=&quot;color: rgb(0, 0, 0); font-family: Helvetica; font-style: normal; font-variant-ligatures: normal; font-variant-caps: normal; font-weight: 400; letter-spacing: normal; orphans: 2; text-align: center; text-indent: 0px; text-transform: none; widows: 2; word-spacing: 0px; -webkit-text-stroke-width: 0px; background-color: rgb(248, 249, 250); text-decoration-thickness: initial; text-decoration-style: initial; text-decoration-color: initial; font-size: 25px;&quot;&gt;Class: create-btn / primary-btn&lt;/span&gt;&lt;br style=&quot;color: rgb(0, 0, 0); font-family: Helvetica; font-style: normal; font-variant-ligatures: normal; font-variant-caps: normal; font-weight: 400; letter-spacing: normal; orphans: 2; text-align: center; text-indent: 0px; text-transform: none; widows: 2; word-spacing: 0px; -webkit-text-stroke-width: 0px; background-color: rgb(248, 249, 250); text-decoration-thickness: initial; text-decoration-style: initial; text-decoration-color: initial; font-size: 25px;&quot;&gt;&lt;span style=&quot;color: rgb(0, 0, 0); font-family: Helvetica; font-style: normal; font-variant-ligatures: normal; font-variant-caps: normal; font-weight: 400; letter-spacing: normal; orphans: 2; text-align: center; text-indent: 0px; text-transform: none; widows: 2; word-spacing: 0px; -webkit-text-stroke-width: 0px; background-color: rgb(248, 249, 250); text-decoration-thickness: initial; text-decoration-style: initial; text-decoration-color: initial; font-size: 25px;&quot;&gt;Element: button/input&lt;/span&gt;" style="whiteSpace=wrap;html=1;rounded=0;" vertex="1" parent="1">
          <mxGeometry x="590" y="-300" width="400" height="180" as="geometry" />
        </mxCell>
        <mxCell id="PElz7vEtqk01Eh3gNN9_-50" value="&lt;br style=&quot;&quot;&gt;&lt;br style=&quot;&quot;&gt;&lt;span style=&quot;font-size: 25px;&quot;&gt;Class: upload-btn / primary-btn&lt;/span&gt;&lt;br style=&quot;font-size: 25px;&quot;&gt;&lt;span style=&quot;font-size: 25px;&quot;&gt;Element: button/input&lt;/span&gt;" style="whiteSpace=wrap;html=1;rounded=0;" vertex="1" parent="1">
          <mxGeometry x="100" y="-50" width="390" height="190" as="geometry" />
        </mxCell>
        <mxCell id="PElz7vEtqk01Eh3gNN9_-52" value="&lt;span style=&quot;font-size: 25px;&quot;&gt;Class: breadcrumbs&lt;/span&gt;&lt;br style=&quot;font-size: 25px;&quot;&gt;&lt;span style=&quot;font-size: 25px;&quot;&gt;Element: div&lt;/span&gt;" style="whiteSpace=wrap;html=1;rounded=0;" vertex="1" parent="1">
          <mxGeometry x="1197.5" y="-130" width="450" height="190" as="geometry" />
        </mxCell>
        <mxCell id="PElz7vEtqk01Eh3gNN9_-54" value="&lt;font style=&quot;font-size: 25px;&quot;&gt;Class: nav-menu&lt;br&gt;Element: Section&lt;br&gt;&lt;/font&gt;" style="whiteSpace=wrap;html=1;rounded=0;" vertex="1" parent="1">
          <mxGeometry x="1890" y="-220" width="410" height="200" as="geometry" />
        </mxCell>
        <mxCell id="PElz7vEtqk01Eh3gNN9_-56" value="&lt;br&gt;&lt;span style=&quot;font-size: 25px;&quot;&gt;Class: searchbar&lt;/span&gt;&lt;br style=&quot;font-size: 25px;&quot;&gt;&lt;span style=&quot;font-size: 25px;&quot;&gt;Element: div&lt;/span&gt;" style="whiteSpace=wrap;html=1;rounded=0;" vertex="1" parent="1">
          <mxGeometry x="2360" y="-340" width="480" height="190" as="geometry" />
        </mxCell>
        <mxCell id="PElz7vEtqk01Eh3gNN9_-58" value="" style="whiteSpace=wrap;html=1;rounded=0;" vertex="1" parent="1">
          <mxGeometry x="3590" y="960" width="510" height="200" as="geometry" />
        </mxCell>
        <mxCell id="PElz7vEtqk01Eh3gNN9_-60" value="" style="whiteSpace=wrap;html=1;rounded=0;" vertex="1" parent="1">
          <mxGeometry x="3450" y="-40" width="430" height="140" as="geometry" />
        </mxCell>
        <mxCell id="PElz7vEtqk01Eh3gNN9_-62" value="" style="whiteSpace=wrap;html=1;rounded=0;" vertex="1" parent="1">
          <mxGeometry x="3510" y="580" width="440" height="150" as="geometry" />
        </mxCell>
        <mxCell id="PElz7vEtqk01Eh3gNN9_-64" value="" style="whiteSpace=wrap;html=1;rounded=0;" vertex="1" parent="1">
          <mxGeometry x="3630" y="1280" width="480" height="220" as="geometry" />
        </mxCell>
        <mxCell id="PElz7vEtqk01Eh3gNN9_-67" style="edgeStyle=orthogonalEdgeStyle;rounded=0;orthogonalLoop=1;jettySize=auto;html=1;entryX=0.25;entryY=1;entryDx=0;entryDy=0;" edge="1" parent="1" source="PElz7vEtqk01Eh3gNN9_-66" target="PElz7vEtqk01Eh3gNN9_-5">
          <mxGeometry relative="1" as="geometry" />
        </mxCell>
        <mxCell id="PElz7vEtqk01Eh3gNN9_-66" value="" style="rounded=0;whiteSpace=wrap;html=1;" vertex="1" parent="1">
          <mxGeometry x="800" y="1790" width="500" height="150" as="geometry" />
        </mxCell>
        <mxCell id="PElz7vEtqk01Eh3gNN9_-68" value="" style="whiteSpace=wrap;html=1;rounded=0;" vertex="1" parent="1">
          <mxGeometry x="1760" y="1790" width="460" height="160" as="geometry" />
        </mxCell>
        <mxCell id="PElz7vEtqk01Eh3gNN9_-71" value="&lt;font style=&quot;font-size: 25px;&quot;&gt;Class: file-manager&lt;br&gt;Element : Section&lt;br&gt;&lt;/font&gt;" style="whiteSpace=wrap;html=1;rounded=0;" vertex="1" parent="1">
          <mxGeometry x="1520" y="-500" width="490" height="170" as="geometry" />
        </mxCell>
        <mxCell id="PElz7vEtqk01Eh3gNN9_-79" value="" style="edgeStyle=orthogonalEdgeStyle;rounded=0;orthogonalLoop=1;jettySize=auto;html=1;" edge="1" parent="1" source="PElz7vEtqk01Eh3gNN9_-74" target="PElz7vEtqk01Eh3gNN9_-78">
          <mxGeometry relative="1" as="geometry" />
        </mxCell>
        <mxCell id="PElz7vEtqk01Eh3gNN9_-74" value="" style="rounded=0;whiteSpace=wrap;html=1;" vertex="1" parent="1">
          <mxGeometry x="1245" y="405" width="85" height="45" as="geometry" />
        </mxCell>
        <mxCell id="PElz7vEtqk01Eh3gNN9_-75" value="" style="rounded=0;whiteSpace=wrap;html=1;" vertex="1" parent="1">
          <mxGeometry x="1380" y="405" width="85" height="45" as="geometry" />
        </mxCell>
        <mxCell id="PElz7vEtqk01Eh3gNN9_-76" value="" style="rounded=0;whiteSpace=wrap;html=1;" vertex="1" parent="1">
          <mxGeometry x="1520" y="402.5" width="85" height="45" as="geometry" />
        </mxCell>
        <mxCell id="PElz7vEtqk01Eh3gNN9_-81" value="" style="edgeStyle=orthogonalEdgeStyle;rounded=0;orthogonalLoop=1;jettySize=auto;html=1;" edge="1" parent="1" source="PElz7vEtqk01Eh3gNN9_-77" target="PElz7vEtqk01Eh3gNN9_-80">
          <mxGeometry relative="1" as="geometry">
            <Array as="points">
              <mxPoint x="2360" y="360" />
              <mxPoint x="2520" y="360" />
              <mxPoint x="2520" y="190" />
            </Array>
          </mxGeometry>
        </mxCell>
        <mxCell id="PElz7vEtqk01Eh3gNN9_-77" value="" style="rounded=0;whiteSpace=wrap;html=1;" vertex="1" parent="1">
          <mxGeometry x="2020" y="401.25" width="450" height="52.5" as="geometry" />
        </mxCell>
        <mxCell id="PElz7vEtqk01Eh3gNN9_-78" value="&lt;br&gt;&lt;span style=&quot;color: rgb(0, 0, 0); font-family: Helvetica; font-style: normal; font-variant-ligatures: normal; font-variant-caps: normal; font-weight: 400; letter-spacing: normal; orphans: 2; text-align: center; text-indent: 0px; text-transform: none; widows: 2; word-spacing: 0px; -webkit-text-stroke-width: 0px; background-color: rgb(248, 249, 250); text-decoration-thickness: initial; text-decoration-style: initial; text-decoration-color: initial; font-size: 25px;&quot;&gt;Class: breadcrumbs__item&lt;/span&gt;&lt;br style=&quot;color: rgb(0, 0, 0); font-family: Helvetica; font-style: normal; font-variant-ligatures: normal; font-variant-caps: normal; font-weight: 400; letter-spacing: normal; orphans: 2; text-align: center; text-indent: 0px; text-transform: none; widows: 2; word-spacing: 0px; -webkit-text-stroke-width: 0px; background-color: rgb(248, 249, 250); text-decoration-thickness: initial; text-decoration-style: initial; text-decoration-color: initial; font-size: 25px;&quot;&gt;&lt;span style=&quot;color: rgb(0, 0, 0); font-family: Helvetica; font-style: normal; font-variant-ligatures: normal; font-variant-caps: normal; font-weight: 400; letter-spacing: normal; orphans: 2; text-align: center; text-indent: 0px; text-transform: none; widows: 2; word-spacing: 0px; -webkit-text-stroke-width: 0px; background-color: rgb(248, 249, 250); text-decoration-thickness: initial; text-decoration-style: initial; text-decoration-color: initial; font-size: 25px;&quot;&gt;Element: a/span&lt;/span&gt;" style="rounded=0;whiteSpace=wrap;html=1;" vertex="1" parent="1">
          <mxGeometry x="980" y="110" width="370" height="130" as="geometry" />
        </mxCell>
        <mxCell id="PElz7vEtqk01Eh3gNN9_-80" value="&lt;br&gt;&lt;span style=&quot;color: rgb(0, 0, 0); font-family: Helvetica; font-size: 25px; font-style: normal; font-variant-ligatures: normal; font-variant-caps: normal; font-weight: 400; letter-spacing: normal; orphans: 2; text-align: center; text-indent: 0px; text-transform: none; widows: 2; word-spacing: 0px; -webkit-text-stroke-width: 0px; background-color: rgb(248, 249, 250); text-decoration-thickness: initial; text-decoration-style: initial; text-decoration-color: initial; float: none; display: inline !important;&quot;&gt;Class: searchbar__input&lt;/span&gt;&lt;br style=&quot;color: rgb(0, 0, 0); font-family: Helvetica; font-size: 25px; font-style: normal; font-variant-ligatures: normal; font-variant-caps: normal; font-weight: 400; letter-spacing: normal; orphans: 2; text-align: center; text-indent: 0px; text-transform: none; widows: 2; word-spacing: 0px; -webkit-text-stroke-width: 0px; background-color: rgb(248, 249, 250); text-decoration-thickness: initial; text-decoration-style: initial; text-decoration-color: initial;&quot;&gt;&lt;span style=&quot;color: rgb(0, 0, 0); font-family: Helvetica; font-size: 25px; font-style: normal; font-variant-ligatures: normal; font-variant-caps: normal; font-weight: 400; letter-spacing: normal; orphans: 2; text-align: center; text-indent: 0px; text-transform: none; widows: 2; word-spacing: 0px; -webkit-text-stroke-width: 0px; background-color: rgb(248, 249, 250); text-decoration-thickness: initial; text-decoration-style: initial; text-decoration-color: initial; float: none; display: inline !important;&quot;&gt;Element: input/button&lt;/span&gt;" style="whiteSpace=wrap;html=1;rounded=0;" vertex="1" parent="1">
          <mxGeometry x="2670" y="-20" width="410" height="150" as="geometry" />
        </mxCell>
      </root>
    </mxGraphModel>
  </diagram>
</mxfile>
